<?xml version="1.0" encoding="UTF-8" standalone="no"?>
<svg width="32px" height="32px" viewBox="0 0 32 32" version="1.1" xmlns="http://www.w3.org/2000/svg" xmlns:xlink="http://www.w3.org/1999/xlink">
    <!-- Generator: Sketch 39.1 (31720) - http://www.bohemiancoding.com/sketch -->
    <title>ico-close</title>
    <desc>Created with Sketch.</desc>
    <defs>
        <polygon id="path-1" points="0.00489795918 31.9999184 31.9346122 31.9999184 31.9346122 0.0653061224 0.00489795918 0.0653061224"></polygon>
    </defs>
    <g id="Symbols" stroke="none" stroke-width="1" fill="none" fill-rule="evenodd">
        <g id="ico-close">
            <g id="cancel">
                <g id="Group-3">
                    <mask id="mask-2" fill="white">
                        <use xlink:href="#path-1"></use>
                    </mask>
                    <g id="Clip-2"></g>
                    <path d="M15.9675102,0.0653061224 C7.13804082,0.0653061224 0,7.20334694 0,16.0328163 C0,24.8622041 7.13804082,31.9999184 15.9675102,31.9999184 C24.796898,31.9999184 31.9346122,24.8622041 31.9346122,16.0328163 C31.9346122,7.20334694 24.796898,0.0653061224 15.9675102,0.0653061224 L15.9675102,0.0653061224 Z M15.9675102,29.3484898 C8.62693878,29.3484898 2.65142857,23.3730612 2.65142857,16.0328163 C2.65142857,8.6922449 8.62693878,2.71673469 15.9675102,2.71673469 C23.3077551,2.71673469 29.2831837,8.6922449 29.2831837,16.0328163 C29.2831837,23.3730612 23.3077551,29.3484898 15.9675102,29.3484898 L15.9675102,29.3484898 Z" id="Fill-1" fill="#50E3C2" mask="url(#mask-2)"></path>
                </g>
                <path d="M21.2701224,8.82930612 L15.9675102,14.1322449 L10.6709388,8.836 C10.1288163,8.29395918 9.3124898,8.29395918 8.77069388,8.836 C8.22865306,9.37779592 8.22865306,10.1941224 8.77069388,10.7362449 L14.0669388,16.0328163 L8.77069388,21.3289796 C8.22865306,21.871102 8.20889796,22.7068571 8.77069388,23.229551 C9.19518367,23.6211429 9.99836735,23.9084082 10.6709388,23.229551 L15.9675102,17.9329796 L21.2636735,23.229551 C22.0733061,23.993551 22.8963265,23.5037551 23.1642449,23.229551 C23.7059592,22.6874286 23.7059592,21.871102 23.1642449,21.3289796 L17.8676735,16.0328163 L23.1642449,10.7362449 C23.7126531,10.1877551 23.7126531,9.37142857 23.1706122,8.82930612 C22.6284898,8.28726531 21.8121633,8.28726531 21.2701224,8.82930612 Z" id="Fill-4" fill="#50E3C2"></path>
            </g>
        </g>
    </g>
</svg>