<?xml version="1.0" encoding="UTF-8" standalone="no"?>
<svg width="32px" height="32px" viewBox="0 0 32 32" version="1.1" xmlns="http://www.w3.org/2000/svg" xmlns:xlink="http://www.w3.org/1999/xlink">
    <!-- Generator: Sketch 39.1 (31720) - http://www.bohemiancoding.com/sketch -->
    <title>ico-vine</title>
    <desc>Created with Sketch.</desc>
    <defs></defs>
    <g id="Symbols" stroke="none" stroke-width="1" fill="none" fill-rule="evenodd">
        <g id="ico-vine" fill="#50E3C2">
            <path d="M28.9914435,19.1733212 C28.5913573,19.2747372 28.1872144,19.3578983 27.7774937,19.4268612 C27.0822868,19.5439967 26.380995,19.6251295 25.6756466,19.6291862 C25.3627782,19.6312145 25.2258665,19.7498712 25.0935186,20.0094963 C23.3958144,23.3491259 21.1535061,26.2744711 18.3767354,28.7880672 C18.1150821,29.0238595 17.8377093,29.2439322 17.5507019,29.4437218 C16.5421196,30.1490702 15.5142682,30.1947075 14.4666407,29.5172484 C13.5691089,28.9406983 12.7927692,28.229772 12.0818429,27.4432908 C9.89683466,25.0229974 8.38928548,22.2000824 7.1951118,19.1930973 C5.56687756,15.1029891 4.64754131,10.836417 4.03955225,6.4907404 L4,6.21742422 L8.81320445,6.21945254 L8.8527567,6.70269989 C9.02516394,8.10071976 9.25081459,9.48555556 9.52615909,10.8663347 C10.5327131,15.9133031 12.3074935,20.6255986 15.5340443,24.7075935 C16.1739794,25.5179076 16.1699228,25.5260208 16.8514384,24.7730069 C18.4340355,23.0281442 19.741288,21.0931265 20.8365811,19.0090272 C20.9674077,18.7595438 20.9633511,18.6368304 20.6940915,18.482171 C17.9999749,16.91935 16.5938417,14.4889151 16.0568439,11.4981565 C15.7343409,9.70714957 15.7678082,7.93084793 16.3976017,6.19764809 C17.4989797,3.17849309 20.1215981,1.72266608 23.2827355,2.04364779 C26.8165769,2.40012511 28.2845738,4.8128123 28.5695528,7.58400513 C28.7698495,9.52510781 28.494505,11.3952193 27.8266804,13.2212148 C27.7774937,13.3560981 27.652752,13.6649099 27.652752,13.6649099 C27.652752,13.6649099 27.380957,13.690771 27.1872524,13.7064904 C25.9449061,13.8053711 24.8060042,13.5934116 23.8831184,12.6644408 C23.7502634,12.5320929 23.5661933,12.32419 23.5661933,12.32419 C23.5661933,12.32419 23.6397199,12.0366756 23.6772439,11.9002711 C24.0595823,10.5651291 24.2750913,9.20615442 23.9581662,7.8218257 C23.7107112,6.74225214 23.0890309,6.19156313 22.1914991,6.2230021 C21.5657623,6.24480654 21.1357583,6.58150774 20.8228899,7.09467282 C20.488217,7.64536182 20.3731098,8.26146416 20.3335576,8.89328598 C20.2382265,10.4697981 20.4719905,11.9930667 21.3198284,13.3459565 C22.7401598,15.6100692 24.8952503,16.3549699 27.4463704,16.115121 C27.9793116,16.0654271 28.494505,15.9746598 28.9894151,15.8438331 L28.9894151,19.1733212 L28.9914435,19.1733212 Z" id="vine-logo"></path>
        </g>
    </g>
</svg>