<?xml version="1.0" encoding="UTF-8" standalone="no"?>
<svg width="34px" height="32px" viewBox="0 0 34 32" version="1.1" xmlns="http://www.w3.org/2000/svg" xmlns:xlink="http://www.w3.org/1999/xlink">
    <!-- Generator: Sketch 39.1 (31720) - http://www.bohemiancoding.com/sketch -->
    <title>ico-vimeo</title>
    <desc>Created with Sketch.</desc>
    <defs></defs>
    <g id="Symbols" stroke="none" stroke-width="1" fill="none" fill-rule="evenodd">
        <g id="ico-vimeo" fill="#50E3C2">
            <g id="vimeo_logo_blue_on_white" transform="translate(1.000000, 2.000000)">
                <path d="M32.1393877,6.43804196 C31.995798,9.56899456 29.810101,13.8561492 25.5819487,19.2977653 C21.2102067,24.9814825 17.511683,27.8236892 14.4862036,27.8236892 C12.612575,27.8236892 11.0259518,26.0934763 9.73051127,22.631136 C8.86549184,19.4578897 8.00029837,16.2844693 7.13527894,13.1115711 C6.17314064,9.6511453 5.14155711,7.91901787 4.03809169,7.91901787 C3.79755711,7.91901787 2.95568609,8.42549806 1.51456721,9.43410723 L0.00191452991,7.48441958 C1.58853768,6.08977156 3.15392696,4.69512354 4.6942533,3.29838695 C6.810331,1.46914064 8.39921678,0.507176379 9.45829992,0.410057498 C11.9605905,0.169522922 13.5009169,1.88059052 14.0789308,5.54343434 C14.7034157,9.49519814 15.1359254,11.9531064 15.3785486,12.9152448 C16.1001523,16.1937902 16.8934639,17.8314095 17.7607459,17.8314095 C18.4336162,17.8314095 19.4443139,16.7678011 20.7926651,14.6412805 C22.1385796,12.5144118 22.8601834,10.8962859 22.9571282,9.78429215 C23.1492774,7.94860606 22.4276737,7.02858741 20.7926651,7.02858741 C20.0223279,7.02858741 19.2290163,7.2059425 18.4127304,7.55612743 C19.9929138,2.37854235 23.0121274,-0.136453768 27.4681088,0.00696192696 C30.7720653,0.104080808 32.3292743,2.24765812 32.1393877,6.43804196" id="Fill-3"></path>
            </g>
        </g>
    </g>
</svg>